<?xml version="1.0" encoding="UTF-8" standalone="no"?>
<svg
   viewBox="0 0 226.41 226.41999"
   version="1.1"
   id="svg27"
   width="226.41"
   height="226.42"
   xmlns="http://www.w3.org/2000/svg"
   xmlns:svg="http://www.w3.org/2000/svg"
   xmlns:rdf="http://www.w3.org/1999/02/22-rdf-syntax-ns#"
   xmlns:cc="http://creativecommons.org/ns#"
   xmlns:dc="http://purl.org/dc/elements/1.1/">
  <defs
     id="defs1">
    <style
       id="style1">.cls-1{fill:#ff7602;}.cls-2{fill:#fff;}</style>
  </defs>
  <title
     id="title1">English horizontal left aligned</title>
  <rect
     class="cls-1"
     x="0"
     y="0"
     width="226.41"
     height="226.42"
     id="rect1" />
  <path
     class="cls-2"
     d="m 66.15,176.14 -25.38,-47.04 0.42,47 H 24.57 V 97.39 h 16.59 l 25.41,47 -0.42,-47 h 16.62 v 78.74 z"
     id="path1" />
  <path
     class="cls-2"
     d="M 108.42,176.14 H 91.62 V 97.39 h 26.78 c 21.21,0 28.53,9.66 28.14,24.67 -0.36,13.46 -5.39,17.22 -13.68,21.21 l 19.27,32.86 h -19.65 l -15.91,-29.5 h -8.16 z m 0,-44.73 h 11.44 c 7.46,0 8.41,-5 8.41,-9.34 0,-4.34 -0.95,-9.34 -8.41,-9.34 h -11.44 z"
     id="path2" />
  <path
     class="cls-2"
     d="m 185.47,95.92 c 9.13,0 13.23,1.68 16.38,2.95 v 15.85 a 34.89,34.89 0 0 0 -14.7,-3 c -12.81,0 -18.69,5.14 -18.69,25.09 0,19.95 5.88,25.09 18.69,25.09 a 34.89,34.89 0 0 0 14.7,-3 v 15.77 c -3.15,1.26 -7.25,2.93 -16.38,2.93 -23,0 -33.91,-11.23 -34,-40.84 0.09,-29.6 11,-40.84 34,-40.84 z"
     id="path3" />
  <metadata
     id="metadata27">
    <rdf:RDF>
      <cc:Work
         rdf:about="">
        <dc:title>English horizontal left aligned</dc:title>
      </cc:Work>
    </rdf:RDF>
  </metadata>
</svg>
